# xmcd
#
# Track frame offsets:
#	150
#	17503
#	33106
#	62512
#	75989
#	89335
#	109315
#	119702
#	140476
#	149112
#	162355
#	187932
#	219788
#	229781
#	241402
#	269257
#	295942
#	309277
#	318327
#	335251
#
# Disc length: 4677 seconds
#
# Revision: 0
# Processed by: cddbd v1.5.2PL0 Copyright (c) Steve Scherf et al.
# Submitted via: EasyCDDAExtractor 16.0.6.1
#
DISCID=14124314
DTITLE=Συλλογικός δίσκος - Σαράντα χρόνια-πρώτη επιλογή-Μ. Θεοδωράκης 2
DYEAR=2003
DGENRE=Έντεχνη λαϊκή
TTITLE0=Άνευ ερμηνευτού - Zorba the Greek [1964]
TTITLE1=Φαραντούρη Μαρία - Τ' όνειρο καπνός (Στης νύχτας το μπαλκόνι)[1965, Νί
TTITLE1=κ. Γκάτσου]
TTITLE2=Φαραντούρη Μαρία - Άσμα ασμάτων [1966, Ιάκωβου Καμπανέλλη]
TTITLE3=Φαραντούρη Μαρία - Το γελαστό παιδί [1967, Brendan Behan]
TTITLE4=Μπιθικώτσης Γρηγόρης - Χρυσοπράσινο φύλλο [1965, Λεωνίδα Μαλένη]
TTITLE5=Μπιθικώτσης Γρηγόρης - Θα σημάνουν οι καμπάνες [1966, Ρωμιοσύνη Γιάννη
TTITLE5=Ρίτσου]
TTITLE6=Μπιθικώτσης Γρηγόρης - Όταν σφίγγουν το χέρι [1966, Ρωμιοσύνη Γιάννη Ρ
TTITLE6=ίτσου]
TTITLE7=Μητσιάς Μανώλης - Το τρένο φεύγει στις οχτώ [1974, Μάνου Ελευθερίου]
TTITLE8=Μητσιάς Μανώλης-Τσανακλίδου Τάνια - Σ' αυτή τη γειτονιά [1974, Μάνου Ε
TTITLE8=λευθερίου]
TTITLE9=Ζωγράφος Γιώργος - Γεια σου μάννα, γεια σου Στράτο [1975, Φώντα Λάδη]
TTITLE10=Φαραντούρη Μαρία - Μιλώ [1972, Μανόλη Αναγνωστάκη]
TTITLE11=Φαραντούρη Μαρία - Vegetationes (Βλαστήσεις) [1975, Canto General Pab
TTITLE11=lo Neruda]
TTITLE12=Νταλάρας Γιώργος - Κουβέντα μ' ένα λουλούδι [1973, 18 Λιανοτράγουδα Γ
TTITLE12=ιάννη Ρίτσου]
TTITLE13=Νταλάρας Γιώργος - Εδώ το φως [1973, 18 Λιανοτράγουδα Γιάννη Ρίτσου]
TTITLE14=Ζορμπαλά Μαργαρίτα - Δρόμοι παλιοί [1975, Μανόλη Αναγνωστάκη]
TTITLE15=Ζορμπαλά Μαργαρίτα - Όταν μιάν άνοιξη [1975, Μανόλη Αναγνωστάκη]
TTITLE16=Αλεξίου Χάρις - Κυρά Παναγιά [1974, Βαγγέλη Γκούφα]
TTITLE17=Θεοδωράκης Μίκης-Καζαντζίδης Στέλιος - Τα πατροπαράδοτα [1974, Μιχάλη
TTITLE17=Κακογιάννη]
TTITLE18=Καζαντζίδης Στέλιος - Άπονες εξουσίες [1974, Μιχάλη Κακογιάννη]
TTITLE19=Καζαντζίδης Στέλιος - Μέσ' στην ταβέρνα [1974, Μίκη Θεοδωράκη]
EXTD=
EXTT0=
EXTT1=
EXTT2=
EXTT3=
EXTT4=
EXTT5=
EXTT6=
EXTT7=
EXTT8=
EXTT9=
EXTT10=
EXTT11=
EXTT12=
EXTT13=
EXTT14=
EXTT15=
EXTT16=
EXTT17=
EXTT18=
EXTT19=
PLAYORDER=
